<?xml version="1.0" encoding="UTF-8"?>
<svg xmlns="http://www.w3.org/2000/svg" xmlns:xlink="http://www.w3.org/1999/xlink" width="48pt" height="40pt" viewBox="0 0 48 40" version="1.1">
<g id="surface1">
<path style=" stroke:none;fill-rule:nonzero;fill:rgb(20%,36.862745%,91.764706%);fill-opacity:1;" d="M 18.039062 8.53125 L 24.148438 8.53125 C 24.898438 8.53125 25.507812 9.148438 25.507812 9.914062 L 25.507812 12.59375 C 25.507812 13.359375 24.898438 13.976562 24.148438 13.976562 L 18.039062 13.976562 C 17.289062 13.976562 16.679688 13.359375 16.679688 12.59375 L 16.679688 9.914062 C 16.679688 9.148438 17.289062 8.53125 18.039062 8.53125 Z M 18.039062 8.53125 "/>
<path style=" stroke:none;fill-rule:nonzero;fill:rgb(76.078431%,81.176471%,97.647059%);fill-opacity:1;" d="M 17.773438 15.671875 L 30.226562 15.671875 C 30.976562 15.671875 31.585938 16.289062 31.585938 17.046875 L 31.585938 21.34375 C 31.585938 22.101562 30.976562 22.71875 30.226562 22.71875 L 17.773438 22.71875 C 17.023438 22.71875 16.414062 22.101562 16.414062 21.34375 L 16.414062 17.046875 C 16.414062 16.289062 17.023438 15.671875 17.773438 15.671875 Z M 17.773438 15.671875 "/>
<path style=" stroke:none;fill-rule:nonzero;fill:rgb(20%,36.862745%,91.764706%);fill-opacity:1;" d="M 17.734375 24.679688 L 21.960938 24.679688 C 22.710938 24.679688 23.320312 25.296875 23.320312 26.0625 L 23.320312 27.679688 C 23.320312 28.4375 22.710938 29.054688 21.960938 29.054688 L 17.734375 29.054688 C 16.984375 29.054688 16.375 28.4375 16.375 27.679688 L 16.375 26.0625 C 16.375 25.296875 16.984375 24.679688 17.734375 24.679688 Z M 17.734375 24.679688 "/>
<path style=" stroke:none;fill-rule:nonzero;fill:rgb(76.078431%,81.176471%,97.647059%);fill-opacity:1;" d="M 26.265625 24.679688 L 30.492188 24.679688 C 31.242188 24.679688 31.851562 25.296875 31.851562 26.0625 L 31.851562 27.679688 C 31.851562 28.4375 31.242188 29.054688 30.492188 29.054688 L 26.265625 29.054688 C 25.515625 29.054688 24.90625 28.4375 24.90625 27.679688 L 24.90625 26.0625 C 24.90625 25.296875 25.515625 24.679688 26.265625 24.679688 Z M 26.265625 24.679688 "/>
<path style=" stroke:none;fill-rule:nonzero;fill:rgb(20%,36.862745%,91.764706%);fill-opacity:1;" d="M 34.1875 4.523438 L 13.8125 4.523438 C 13.0625 4.523438 12.453125 5.140625 12.453125 5.898438 L 12.453125 34.101562 C 12.453125 34.859375 13.0625 35.476562 13.8125 35.476562 L 34.1875 35.476562 C 34.9375 35.476562 35.546875 34.859375 35.546875 34.101562 L 35.546875 5.898438 C 35.546875 5.140625 34.9375 4.523438 34.1875 4.523438 Z M 24 34.460938 C 23.359375 34.460938 22.84375 33.9375 22.84375 33.289062 C 22.84375 32.640625 23.359375 32.117188 24 32.117188 C 24.640625 32.117188 25.15625 32.640625 25.15625 33.289062 C 25.15625 33.9375 24.640625 34.460938 24 34.460938 Z M 33.46875 29.820312 C 33.46875 30.585938 32.859375 31.203125 32.109375 31.203125 L 15.890625 31.203125 C 15.140625 31.203125 14.53125 30.585938 14.53125 29.820312 L 14.53125 8.679688 C 14.53125 7.921875 15.140625 7.304688 15.890625 7.304688 L 32.109375 7.304688 C 32.859375 7.304688 33.46875 7.921875 33.46875 8.679688 Z M 33.46875 29.820312 "/>
</g>
</svg>
