<svg id="Layer_1" data-name="Layer 1" xmlns="http://www.w3.org/2000/svg" viewBox="0 0 424 347.98"><defs><style>.cls-1{fill:#335eea;}.cls-2{fill:#c2cff9;}</style></defs><title>build-icon</title><path class="cls-1" d="M91.36,86.08c0-15.39,10.24-25.71,25.52-25.71h180c15.26,0,25.5,10.34,25.51,25.73q0,20.5,0,41c0,12.83-.06,25.66,0,38.49,0,4.33-4,6-8.15,5.8-4.43-.2-7.91-3-7.9-6.54q.05-37.49,0-75c0-12.06-1-14.44-12.79-14.45-57.83-.08-110.65-.08-168.48,0-11.4,0-13.64,2.2-13.66,13.55q-.14,87,0,174c0,4.76-.52,4.68,1.92,9.18,2.65,4.89,9.91,4.2,14.88,4.21,38.16.07,69.32.06,107.48,0,3.76,0,6.58,4.6,6.68,9.29.1,4.85-2.59,5.79-6.7,5.78-40.16-.06-80.32,0-120.48-.06a24.24,24.24,0,0,1-23.86-23.79q0-45.49,0-91Q91.36,131.32,91.36,86.08Z"/><path class="cls-2" d="M151,148.2,171.34,165l3.63,3c6.68,5.53,8.35,5.61,15.29.11,6.31-5,11-11.16,13.31-19,.94-3.24.26-5.49-2.55-7.72-8.73-6.94-17.21-14.2-26.28-21.76A39.42,39.42,0,0,1,197.34,116c19.17,2.15,35.46,18,36.77,37.35.74,10.94,5.35,18.31,13.6,25,31.9,25.92,63.43,52.3,95.07,78.54,7.46,6.19,10,14.85,6.95,23.26a20,20,0,0,1-18.47,13.08c-5.62.08-10.27-2.17-14.57-5.74-32.22-26.78-64.57-53.39-96.7-80.28-6.89-5.77-14-7.93-23-6.8-27.49,3.47-50.58-20.38-46.91-48C150.24,151.27,150.57,150.09,151,148.2ZM329.24,263.84a8.21,8.21,0,1,0,8.73,7.51A8.28,8.28,0,0,0,329.24,263.84Z"/></svg>