<?xml version="1.0" encoding="UTF-8"?>
<svg xmlns="http://www.w3.org/2000/svg" xmlns:xlink="http://www.w3.org/1999/xlink" width="24pt" height="24pt" viewBox="0 0 24 24" version="1.1">
<g id="surface1">
<path style=" stroke:none;fill-rule:nonzero;fill:rgb(64.313725%,76.078431%,96.862745%);fill-opacity:1;" d="M 23.453125 20.210938 L 22.234375 22.242188 C 22.027344 22.589844 21.742188 22.878906 21.402344 23.09375 C 21.207031 23.214844 20.996094 23.308594 20.773438 23.367188 C 18.75 23.925781 14.28125 24.039062 7.125 16.875 C -0.0351562 9.714844 0.0742188 5.25 0.632812 3.226562 C 0.691406 3.003906 0.785156 2.792969 0.90625 2.597656 C 1.121094 2.257812 1.410156 1.972656 1.753906 1.765625 L 3.789062 0.546875 C 4.25 0.269531 4.851562 0.402344 5.152344 0.855469 L 6.914062 3.492188 L 8.390625 5.710938 C 8.683594 6.152344 8.585938 6.746094 8.171875 7.074219 L 7.683594 7.453125 L 6.351562 8.484375 C 5.960938 8.792969 5.847656 9.335938 6.082031 9.773438 C 6.621094 10.734375 7.125 11.863281 9.628906 14.371094 C 12.128906 16.878906 13.265625 17.378906 14.226562 17.917969 C 14.664062 18.152344 15.207031 18.039062 15.515625 17.648438 L 16.546875 16.316406 L 16.925781 15.828125 C 17.253906 15.414062 17.847656 15.316406 18.289062 15.609375 L 20.574219 17.132812 L 23.144531 18.847656 C 23.597656 19.148438 23.730469 19.75 23.453125 20.210938 Z M 23.453125 20.210938 "/>
<path style=" stroke:none;fill-rule:nonzero;fill:rgb(89.019608%,90.588235%,94.901961%);fill-opacity:1;" d="M 22.652344 21.011719 L 21.433594 23.042969 C 21.421875 23.058594 21.414062 23.074219 21.402344 23.09375 C 21.207031 23.214844 20.996094 23.308594 20.773438 23.367188 C 18.75 23.925781 14.28125 24.039062 7.125 16.875 C -0.0351562 9.714844 0.0742188 5.25 0.632812 3.226562 C 0.691406 3.003906 0.785156 2.792969 0.90625 2.597656 C 0.921875 2.585938 0.941406 2.578125 0.957031 2.566406 L 2.988281 1.347656 C 3.453125 1.066406 4.050781 1.203125 4.351562 1.652344 L 6.113281 4.292969 L 7.589844 6.507812 C 7.878906 6.953125 7.785156 7.542969 7.371094 7.875 L 6.03125 8.914062 L 5.550781 9.285156 C 5.160156 9.589844 5.046875 10.136719 5.285156 10.574219 C 5.820312 11.53125 6.324219 12.664062 8.828125 15.171875 C 11.332031 17.679688 12.464844 18.179688 13.425781 18.714844 C 13.863281 18.953125 14.410156 18.839844 14.714844 18.449219 L 15.085938 17.96875 L 16.125 16.628906 C 16.457031 16.214844 17.046875 16.121094 17.492188 16.410156 L 19.773438 17.933594 L 22.347656 19.648438 C 22.796875 19.949219 22.933594 20.546875 22.652344 21.011719 Z M 22.652344 21.011719 "/>
<path style=" stroke:none;fill-rule:nonzero;fill:rgb(100%,100%,100%);fill-opacity:1;" d="M 19.601562 23.574219 C 17.144531 23.382812 13.414062 21.96875 8.320312 16.875 C 1.160156 9.71875 1.277344 5.25 1.832031 3.226562 C 1.890625 3.003906 1.984375 2.792969 2.109375 2.597656 C 2.320312 2.257812 2.609375 1.972656 2.957031 1.765625 L 4.902344 0.597656 C 4.574219 0.359375 4.136719 0.339844 3.789062 0.546875 L 1.753906 1.765625 C 1.410156 1.972656 1.121094 2.257812 0.90625 2.597656 C 0.785156 2.792969 0.691406 3.003906 0.632812 3.226562 C 0.0742188 5.25 -0.0390625 9.71875 7.125 16.875 C 13.125 22.882812 17.238281 23.769531 19.601562 23.574219 Z M 19.601562 23.574219 "/>
<path style=" stroke:none;fill-rule:nonzero;fill:rgb(100%,100%,100%);fill-opacity:1;" d="M 6.839844 17.160156 C 5.601562 15.921875 4.445312 14.601562 3.378906 13.207031 C 2.277344 11.78125 1.382812 10.210938 0.714844 8.539062 C 0.382812 7.6875 0.160156 6.796875 0.0507812 5.886719 C -0.0585938 4.960938 0.0078125 4.019531 0.242188 3.117188 L 1.015625 3.328125 C 0.808594 4.136719 0.75 4.972656 0.84375 5.800781 C 0.949219 6.644531 1.15625 7.46875 1.464844 8.257812 C 2.105469 9.859375 2.964844 11.363281 4.019531 12.730469 C 5.0625 14.09375 6.195312 15.382812 7.40625 16.597656 Z M 6.839844 17.160156 "/>
<path style=" stroke:none;fill-rule:nonzero;fill:rgb(25.882353%,55.294118%,100%);fill-opacity:1;" d="M 0.0507812 5.886719 C 0.160156 6.792969 0.382812 7.683594 0.714844 8.539062 C 1.382812 10.210938 2.277344 11.78125 3.378906 13.207031 C 3.457031 13.320312 3.539062 13.425781 3.625 13.53125 C 3.761719 13.707031 4.015625 13.738281 4.191406 13.601562 C 4.363281 13.464844 4.394531 13.21875 4.257812 13.042969 C 4.175781 12.941406 4.09375 12.839844 4.019531 12.730469 C 2.964844 11.363281 2.105469 9.859375 1.464844 8.257812 C 1.15625 7.46875 0.949219 6.640625 0.84375 5.800781 C 0.75 4.972656 0.808594 4.136719 1.015625 3.332031 C 1.160156 2.816406 1.5 2.378906 1.960938 2.109375 L 3.992188 0.890625 C 4.273438 0.71875 4.636719 0.800781 4.820312 1.074219 L 8.058594 5.933594 C 8.234375 6.199219 8.175781 6.558594 7.925781 6.757812 L 6.105469 8.171875 C 5.554688 8.59375 5.394531 9.359375 5.734375 9.96875 L 5.878906 10.230469 C 6.390625 11.167969 7.027344 12.335938 9.347656 14.652344 C 11.667969 16.972656 12.832031 17.609375 13.769531 18.121094 L 14.03125 18.265625 C 14.640625 18.605469 15.40625 18.449219 15.828125 17.894531 L 17.246094 16.074219 C 17.441406 15.824219 17.800781 15.765625 18.066406 15.941406 L 22.925781 19.183594 C 23.199219 19.363281 23.28125 19.726562 23.113281 20.007812 L 21.894531 22.039062 C 21.621094 22.5 21.183594 22.839844 20.671875 22.984375 C 18.210938 23.660156 13.910156 23.101562 7.40625 16.59375 L 6.308594 15.449219 C 6.15625 15.292969 5.90625 15.285156 5.742188 15.429688 C 5.664062 15.5 5.617188 15.601562 5.613281 15.707031 C 5.609375 15.816406 5.648438 15.917969 5.722656 15.996094 L 6.839844 17.160156 C 12.230469 22.550781 16.242188 24 19 24 C 19.636719 24.003906 20.269531 23.921875 20.878906 23.753906 C 21.59375 23.554688 22.203125 23.085938 22.578125 22.449219 L 23.796875 20.417969 C 24.1875 19.769531 24 18.933594 23.371094 18.515625 L 18.511719 15.277344 C 17.894531 14.867188 17.070312 15 16.613281 15.582031 L 15.199219 17.402344 C 15.015625 17.644531 14.6875 17.710938 14.421875 17.566406 L 14.152344 17.417969 C 13.261719 16.933594 12.152344 16.324219 9.914062 14.089844 C 7.675781 11.851562 7.070312 10.738281 6.585938 9.847656 L 6.4375 9.578125 C 6.289062 9.316406 6.355469 8.984375 6.597656 8.800781 L 8.414062 7.386719 C 8.996094 6.929688 9.128906 6.105469 8.722656 5.488281 L 5.484375 0.628906 C 5.066406 0 4.230469 -0.1875 3.582031 0.203125 L 1.550781 1.421875 C 0.914062 1.796875 0.445312 2.40625 0.242188 3.117188 C 0.0078125 4.019531 -0.0546875 4.960938 0.0507812 5.886719 Z M 0.0507812 5.886719 "/>
<path style=" stroke:none;fill-rule:nonzero;fill:rgb(25.882353%,55.294118%,100%);fill-opacity:1;" d="M 4.980469 14.132812 C 4.929688 14.128906 4.875 14.136719 4.828125 14.152344 C 4.777344 14.167969 4.730469 14.191406 4.691406 14.226562 C 4.609375 14.292969 4.558594 14.390625 4.546875 14.496094 C 4.539062 14.605469 4.578125 14.707031 4.644531 14.789062 C 4.71875 14.867188 4.816406 14.917969 4.921875 14.929688 L 5 14.925781 C 5.027344 14.921875 5.054688 14.914062 5.082031 14.90625 C 5.105469 14.898438 5.128906 14.886719 5.152344 14.875 C 5.171875 14.863281 5.195312 14.847656 5.214844 14.828125 C 5.292969 14.757812 5.34375 14.660156 5.355469 14.554688 C 5.363281 14.335938 5.199219 14.152344 4.980469 14.132812 Z M 4.980469 14.132812 "/>
<path style=" stroke:none;fill-rule:nonzero;fill:rgb(25.882353%,55.294118%,100%);fill-opacity:1;" d="M 13.597656 4 C 17.351562 4.003906 20.394531 7.046875 20.398438 10.800781 C 20.398438 11.023438 20.578125 11.199219 20.796875 11.199219 C 21.019531 11.199219 21.199219 11.023438 21.199219 10.800781 C 21.191406 6.605469 17.792969 3.207031 13.597656 3.203125 C 13.378906 3.203125 13.199219 3.378906 13.199219 3.601562 C 13.199219 3.824219 13.378906 4 13.597656 4 Z M 13.597656 4 "/>
<path style=" stroke:none;fill-rule:nonzero;fill:rgb(25.882353%,55.294118%,100%);fill-opacity:1;" d="M 13.597656 6.402344 C 16.027344 6.402344 17.996094 8.371094 18 10.800781 C 18 11.023438 18.175781 11.199219 18.398438 11.199219 C 18.621094 11.199219 18.796875 11.023438 18.796875 10.800781 C 18.792969 7.929688 16.46875 5.605469 13.597656 5.601562 C 13.378906 5.601562 13.199219 5.78125 13.199219 6 C 13.199219 6.222656 13.378906 6.402344 13.597656 6.402344 Z M 13.597656 6.402344 "/>
<path style=" stroke:none;fill-rule:nonzero;fill:rgb(25.882353%,55.294118%,100%);fill-opacity:1;" d="M 13.597656 8.800781 C 14.703125 8.800781 15.597656 9.695312 15.597656 10.800781 C 15.597656 11.023438 15.777344 11.199219 16 11.199219 C 16.21875 11.199219 16.398438 11.023438 16.398438 10.800781 C 16.398438 9.253906 15.144531 8.003906 13.597656 8 C 13.378906 8 13.199219 8.179688 13.199219 8.402344 C 13.199219 8.621094 13.378906 8.800781 13.597656 8.800781 Z M 13.597656 8.800781 "/>
</g>
</svg>
