<svg xmlns="http://www.w3.org/2000/svg" viewBox="0 0 424 347.98"><defs><style>.cls-1{fill:#c2cff9;}.cls-2{fill:#335eea;}.cls-3{fill:#517aed;}</style></defs><title>design-icon</title><g id="Layer_4" data-name="Layer 4"><path class="cls-1" d="M345.38,114.56c-1.84,2.43-3.49,5-5.54,7.27-4.81,5.24-9.81,10.32-15,15.72l-23.69-22.74,7.49-7.79c3.37-3.51,6.68-7.09,10.14-10.51,4.1-4,7.19-4,11.37,0,4,3.84,8.07,7.66,12.06,11.54,1.11,1.08,2,2.32,3.06,3.49Z"/><path class="cls-1" d="M142.07,234.36c.16-10.5,1.44-21.58,5.14-32.3C151.81,188.71,162,182,175,178.5a20.68,20.68,0,0,1,6.15-1c3.62.17,5.41-1.7,7.41-4.45,9.15-12.58,18.59-24.95,27.74-37.13l17.44,16.92c-3.56,3.2-7.43,6.94-11.56,10.34-8.79,7.24-17.74,14.29-26.57,21.5a5.37,5.37,0,0,0-1.78,2.89c-1.22,6.45-2.87,12.69-6.59,18.25a30.37,30.37,0,0,1-16.89,12.39c-7.68,2.35-15.3,4.7-21.4,10.31C146.62,230.6,144.18,232.56,142.07,234.36Z"/><path class="cls-1" d="M198.19,222.23l23.54,22.6c-.7.43-1.16.76-1.66,1Q199.72,256.44,179.35,267a8.82,8.82,0,0,1-2.56.45,8.9,8.9,0,0,1,.4-2.58C184.11,250.75,191.07,236.66,198.19,222.23Z"/><path class="cls-2" d="M269.87,96.88H90.62a12,12,0,0,0-12,12V288.12a12,12,0,0,0,12,12H269.87a12,12,0,0,0,12-12V108.88A12,12,0,0,0,269.87,96.88Zm-2.34,176.9a12,12,0,0,1-12,12H105a12,12,0,0,1-12-12V123.22a12,12,0,0,1,12-12H255.52a12,12,0,0,1,12,12Z"/><path class="cls-3" d="M243.68,104.71s18.42-19.73,24.83-26c6.13-6,26.17-22.17,26.17-22.17s17.5-12.5,23-7.5-3.83,18.5-3.83,18.5-11.92,16.27-16.33,21.33c-9.19,10.56-39.33,39.83-39.33,39.83l-21,20.87s-8.06-5.58-10.38-7.87c-2.06-2-7.11-9.15-7.11-9.15Z"/><polygon class="cls-3" points="203.07 217.25 251.85 166.54 296.99 120.22 320.06 142.4 271.85 192.88 226.7 239.92 203.07 217.25"/></g></svg>