<?xml version="1.0" encoding="UTF-8"?>
<svg xmlns="http://www.w3.org/2000/svg" xmlns:xlink="http://www.w3.org/1999/xlink" width="48pt" height="40pt" viewBox="0 0 48 40" version="1.1">
<g id="surface1">
<path style=" stroke:none;fill-rule:nonzero;fill:rgb(76.078431%,81.176471%,97.647059%);fill-opacity:1;" d="M 39.101562 13.171875 C 38.890625 13.445312 38.703125 13.742188 38.46875 14.007812 C 37.929688 14.609375 37.359375 15.1875 36.773438 15.8125 L 34.09375 13.195312 L 34.9375 12.304688 C 35.320312 11.898438 35.695312 11.484375 36.085938 11.09375 C 36.554688 10.632812 36.898438 10.632812 37.375 11.09375 C 37.828125 11.539062 38.289062 11.976562 38.742188 12.421875 C 38.867188 12.546875 38.96875 12.6875 39.085938 12.820312 Z M 39.101562 13.171875 "/>
<path style=" stroke:none;fill-rule:nonzero;fill:rgb(76.078431%,81.176471%,97.647059%);fill-opacity:1;" d="M 16.085938 26.9375 C 16.101562 25.734375 16.25 24.460938 16.664062 23.226562 C 17.1875 21.695312 18.335938 20.921875 19.8125 20.515625 C 20.039062 20.445312 20.273438 20.40625 20.507812 20.40625 C 20.914062 20.421875 21.117188 20.210938 21.34375 19.890625 C 22.382812 18.445312 23.453125 17.023438 24.484375 15.625 L 26.460938 17.570312 C 26.054688 17.9375 25.617188 18.367188 25.15625 18.757812 C 24.15625 19.585938 23.140625 20.398438 22.140625 21.226562 C 22.046875 21.3125 21.976562 21.429688 21.945312 21.5625 C 21.804688 22.304688 21.617188 23.023438 21.195312 23.65625 C 20.75 24.351562 20.070312 24.851562 19.28125 25.085938 C 18.414062 25.351562 17.554688 25.625 16.859375 26.265625 C 16.601562 26.507812 16.320312 26.734375 16.085938 26.9375 Z M 16.085938 26.9375 "/>
<path style=" stroke:none;fill-rule:nonzero;fill:rgb(76.078431%,81.176471%,97.647059%);fill-opacity:1;" d="M 22.4375 25.546875 L 25.101562 28.140625 C 25.023438 28.195312 24.96875 28.226562 24.914062 28.257812 C 23.375 29.070312 21.84375 29.882812 20.304688 30.6875 C 20.210938 30.71875 20.109375 30.742188 20.015625 30.742188 C 20.015625 30.640625 20.03125 30.539062 20.0625 30.445312 C 20.84375 28.820312 21.632812 27.203125 22.4375 25.546875 Z M 22.4375 25.546875 "/>
<path style=" stroke:none;fill-rule:nonzero;fill:rgb(20%,36.862745%,91.764706%);fill-opacity:1;" d="M 30.554688 11.140625 L 10.257812 11.140625 C 9.507812 11.140625 8.898438 11.757812 8.898438 12.515625 L 8.898438 33.117188 C 8.898438 33.882812 9.507812 34.5 10.257812 34.5 L 30.554688 34.5 C 31.304688 34.5 31.90625 33.882812 31.90625 33.117188 L 31.90625 12.515625 C 31.90625 11.757812 31.304688 11.140625 30.554688 11.140625 Z M 30.289062 31.46875 C 30.289062 32.234375 29.679688 32.851562 28.929688 32.851562 L 11.890625 32.851562 C 11.132812 32.851562 10.53125 32.234375 10.53125 31.46875 L 10.53125 14.164062 C 10.53125 13.40625 11.132812 12.78125 11.890625 12.78125 L 28.929688 12.78125 C 29.679688 12.78125 30.289062 13.40625 30.289062 14.164062 Z M 30.289062 31.46875 "/>
<path style=" stroke:none;fill-rule:nonzero;fill:rgb(31.764706%,47.843137%,92.941176%);fill-opacity:1;" d="M 27.585938 12.039062 C 27.585938 12.039062 29.671875 9.765625 30.398438 9.046875 C 31.09375 8.359375 33.359375 6.5 33.359375 6.5 C 33.359375 6.5 35.34375 5.0625 35.960938 5.640625 C 36.585938 6.210938 35.53125 7.765625 35.53125 7.765625 C 35.53125 7.765625 34.179688 9.632812 33.679688 10.21875 C 32.640625 11.429688 29.226562 14.796875 29.226562 14.796875 L 26.851562 17.195312 C 26.851562 17.195312 25.9375 16.554688 25.679688 16.289062 C 25.445312 16.0625 24.875 15.234375 24.875 15.234375 Z M 27.585938 12.039062 "/>
<path style=" stroke:none;fill-rule:nonzero;fill:rgb(31.764706%,47.843137%,92.941176%);fill-opacity:1;" d="M 22.992188 24.96875 L 28.507812 19.140625 L 33.625 13.820312 L 36.234375 16.367188 L 30.773438 22.171875 L 25.664062 27.578125 Z M 22.992188 24.96875 "/>
</g>
</svg>
