<?xml version="1.0" encoding="UTF-8"?>
<svg xmlns="http://www.w3.org/2000/svg" xmlns:xlink="http://www.w3.org/1999/xlink" width="48pt" height="40pt" viewBox="0 0 48 40" version="1.1">
<g id="surface1">
<path style=" stroke:none;fill-rule:nonzero;fill:rgb(20%,36.862745%,91.764706%);fill-opacity:1;" d="M 10.34375 9.898438 C 10.34375 8.125 11.5 6.9375 13.234375 6.9375 L 33.609375 6.9375 C 35.335938 6.9375 36.492188 8.125 36.5 9.898438 C 36.5 11.46875 36.5 13.039062 36.5 14.609375 C 36.5 16.085938 36.492188 17.5625 36.5 19.03125 C 36.5 19.53125 36.046875 19.726562 35.578125 19.703125 C 35.070312 19.679688 34.679688 19.359375 34.679688 18.953125 C 34.6875 16.078125 34.6875 13.203125 34.679688 10.328125 C 34.679688 8.945312 34.570312 8.671875 33.234375 8.664062 C 26.6875 8.65625 20.703125 8.65625 14.15625 8.664062 C 12.867188 8.664062 12.617188 8.921875 12.609375 10.226562 C 12.601562 16.890625 12.601562 23.5625 12.609375 30.226562 C 12.609375 30.773438 12.554688 30.765625 12.828125 31.28125 C 13.132812 31.84375 13.953125 31.765625 14.515625 31.765625 C 18.835938 31.773438 22.359375 31.773438 26.679688 31.765625 C 27.109375 31.765625 27.429688 32.296875 27.4375 32.835938 C 27.453125 33.390625 27.148438 33.5 26.679688 33.5 C 22.132812 33.492188 17.585938 33.5 13.039062 33.492188 C 11.5625 33.46875 10.367188 32.257812 10.335938 30.757812 C 10.335938 27.265625 10.335938 23.78125 10.335938 20.296875 C 10.34375 16.828125 10.34375 13.359375 10.34375 9.898438 Z M 10.34375 9.898438 "/>
<path style=" stroke:none;fill-rule:nonzero;fill:rgb(76.078431%,81.176471%,97.647059%);fill-opacity:1;" d="M 17.09375 17.039062 L 19.398438 18.96875 L 19.804688 19.3125 C 20.5625 19.945312 20.75 19.953125 21.539062 19.320312 C 22.25 18.75 22.78125 18.039062 23.046875 17.140625 C 23.148438 16.765625 23.078125 16.507812 22.757812 16.25 C 21.765625 15.453125 20.8125 14.617188 19.78125 13.75 C 20.578125 13.359375 21.46875 13.210938 22.34375 13.335938 C 24.507812 13.578125 26.351562 15.40625 26.5 17.625 C 26.585938 18.882812 27.109375 19.734375 28.039062 20.5 C 31.65625 23.476562 35.226562 26.515625 38.804688 29.53125 C 39.648438 30.242188 39.9375 31.234375 39.59375 32.203125 C 39.265625 33.09375 38.4375 33.695312 37.5 33.703125 C 36.867188 33.71875 36.335938 33.453125 35.851562 33.046875 C 32.203125 29.96875 28.539062 26.90625 24.90625 23.820312 C 24.125 23.15625 23.320312 22.90625 22.296875 23.039062 C 19.1875 23.4375 16.578125 20.695312 16.992188 17.523438 C 17.007812 17.390625 17.046875 17.25 17.09375 17.039062 Z M 37.273438 30.328125 C 36.898438 30.351562 36.570312 30.609375 36.453125 30.96875 C 36.335938 31.335938 36.445312 31.734375 36.726562 31.984375 C 37.015625 32.234375 37.421875 32.28125 37.757812 32.109375 C 38.09375 31.9375 38.289062 31.570312 38.257812 31.1875 C 38.210938 30.679688 37.773438 30.296875 37.273438 30.328125 Z M 37.273438 30.328125 "/>
</g>
</svg>
