<?xml version="1.0" encoding="UTF-8"?>
<svg xmlns="http://www.w3.org/2000/svg" xmlns:xlink="http://www.w3.org/1999/xlink" width="24pt" height="24pt" viewBox="0 0 24 24" version="1.1">
<g id="surface1">
<path style=" stroke:none;fill-rule:nonzero;fill:rgb(64.313725%,76.078431%,96.862745%);fill-opacity:1;" d="M 23.601562 9.199219 L 23.601562 22.800781 C 23.597656 23.242188 23.242188 23.597656 22.800781 23.597656 L 1.199219 23.597656 C 0.757812 23.597656 0.402344 23.242188 0.398438 22.800781 L 0.398438 9.199219 L 0.566406 9.070312 L 0.667969 9.199219 L 23.332031 9.199219 L 23.433594 9.070312 Z M 23.601562 9.199219 "/>
<path style=" stroke:none;fill-rule:nonzero;fill:rgb(89.019608%,90.588235%,94.901961%);fill-opacity:1;" d="M 22.398438 9.199219 L 22.398438 22.800781 C 22.398438 23.242188 22.042969 23.597656 21.601562 23.597656 L 1.199219 23.597656 C 1.171875 23.601562 1.148438 23.597656 1.121094 23.59375 C 1.101562 23.59375 1.082031 23.59375 1.0625 23.585938 C 0.859375 23.550781 0.679688 23.4375 0.554688 23.269531 C 0.453125 23.136719 0.398438 22.96875 0.398438 22.800781 L 0.398438 9.199219 L 22.132812 9.199219 L 22.230469 9.070312 Z M 22.398438 9.199219 "/>
<path style=" stroke:none;fill-rule:nonzero;fill:rgb(89.019608%,90.588235%,94.901961%);fill-opacity:1;" d="M 23.433594 9.070312 L 23.332031 9.199219 L 12.398438 17.597656 L 11.601562 17.597656 L 0.667969 9.199219 L 0.566406 9.070312 L 4.398438 6.089844 L 9.671875 2 L 11.515625 0.566406 C 11.800781 0.34375 12.199219 0.34375 12.484375 0.566406 L 14.328125 2 L 19.601562 6.089844 Z M 23.433594 9.070312 "/>
<path style=" stroke:none;fill-rule:nonzero;fill:rgb(64.313725%,76.078431%,96.862745%);fill-opacity:1;" d="M 19.601562 2.800781 L 19.601562 12.066406 L 18.398438 12.992188 L 12.398438 17.597656 L 11.601562 17.597656 L 4.398438 12.066406 L 4.398438 2.800781 C 4.402344 2.359375 4.757812 2 5.199219 2 L 18.800781 2 C 19.242188 2 19.597656 2.359375 19.601562 2.800781 Z M 19.601562 2.800781 "/>
<path style=" stroke:none;fill-rule:nonzero;fill:rgb(89.019608%,90.588235%,94.901961%);fill-opacity:1;" d="M 18.398438 2.800781 L 18.398438 12.992188 L 12.398438 17.597656 L 11.601562 17.597656 L 4.398438 12.066406 L 4.398438 2.800781 C 4.402344 2.359375 4.757812 2 5.199219 2 L 17.601562 2 C 18.042969 2 18.398438 2.359375 18.398438 2.800781 Z M 18.398438 2.800781 "/>
<path style=" stroke:none;fill-rule:nonzero;fill:rgb(64.313725%,76.078431%,96.862745%);fill-opacity:1;" d="M 23.445312 23.269531 C 23.292969 23.476562 23.054688 23.601562 22.800781 23.597656 L 21.601562 23.597656 C 22.042969 23.597656 22.398438 23.242188 22.398438 22.800781 L 22.398438 22.460938 Z M 23.445312 23.269531 "/>
<path style=" stroke:none;fill-rule:nonzero;fill:rgb(89.019608%,90.588235%,94.901961%);fill-opacity:1;" d="M 22.398438 22.460938 L 22.398438 22.800781 C 22.398438 23.242188 22.042969 23.597656 21.601562 23.597656 L 1.199219 23.597656 C 1.171875 23.601562 1.148438 23.597656 1.121094 23.59375 C 1.101562 23.59375 1.082031 23.59375 1.0625 23.585938 C 0.859375 23.550781 0.679688 23.4375 0.554688 23.269531 L 9.71875 16.15625 L 11.515625 14.757812 C 11.800781 14.535156 12.199219 14.535156 12.484375 14.757812 L 14.28125 16.15625 Z M 22.398438 22.460938 "/>
<path style=" stroke:none;fill-rule:nonzero;fill:rgb(100%,100%,100%);fill-opacity:1;" d="M 12.601562 0.65625 L 12.484375 0.566406 C 12.199219 0.34375 11.800781 0.34375 11.515625 0.566406 L 9.671875 2 L 10.871094 2 Z M 12.601562 0.65625 "/>
<path style=" stroke:none;fill-rule:nonzero;fill:rgb(100%,100%,100%);fill-opacity:1;" d="M 0.453125 23.074219 C 0.476562 23.140625 0.511719 23.207031 0.550781 23.265625 C 0.554688 23.265625 0.554688 23.269531 0.554688 23.269531 C 0.566406 23.285156 0.578125 23.292969 0.585938 23.304688 C 0.605469 23.332031 0.625 23.355469 0.648438 23.375 C 0.664062 23.390625 0.683594 23.40625 0.703125 23.417969 C 0.722656 23.4375 0.742188 23.453125 0.765625 23.46875 C 0.785156 23.484375 0.808594 23.492188 0.832031 23.503906 C 0.855469 23.515625 0.878906 23.53125 0.902344 23.539062 C 0.929688 23.550781 0.949219 23.554688 0.96875 23.5625 C 0.996094 23.570312 1.023438 23.578125 1.054688 23.585938 C 1.058594 23.585938 1.0625 23.585938 1.0625 23.585938 C 1.082031 23.59375 1.101562 23.59375 1.121094 23.59375 C 1.148438 23.597656 1.171875 23.601562 1.199219 23.597656 L 2.398438 23.597656 C 2.375 23.601562 2.347656 23.597656 2.320312 23.59375 C 2.300781 23.59375 2.28125 23.59375 2.265625 23.585938 C 2.261719 23.585938 2.257812 23.585938 2.253906 23.585938 C 2.226562 23.578125 2.195312 23.570312 2.167969 23.5625 C 2.148438 23.554688 2.125 23.550781 2.101562 23.539062 C 2.082031 23.53125 2.054688 23.515625 2.03125 23.503906 C 2.007812 23.492188 1.988281 23.484375 1.964844 23.46875 C 1.945312 23.453125 1.921875 23.4375 1.902344 23.417969 C 1.882812 23.40625 1.863281 23.390625 1.847656 23.375 C 1.828125 23.355469 1.804688 23.332031 1.789062 23.304688 C 1.777344 23.292969 1.765625 23.285156 1.757812 23.269531 C 1.757812 23.269531 1.757812 23.265625 1.753906 23.265625 C 1.710938 23.207031 1.675781 23.140625 1.652344 23.074219 C 1.644531 23.054688 1.640625 23.039062 1.636719 23.023438 C 1.613281 22.949219 1.601562 22.875 1.601562 22.800781 L 1.601562 9.199219 L 1.769531 9.070312 L 5.601562 6.089844 L 5.601562 2.800781 C 5.601562 2.359375 5.957031 2 6.398438 2 L 5.199219 2 C 4.757812 2 4.402344 2.359375 4.398438 2.800781 L 4.398438 6.089844 L 0.566406 9.070312 L 0.398438 9.199219 L 0.398438 22.800781 C 0.402344 22.875 0.414062 22.949219 0.4375 23.023438 C 0.441406 23.039062 0.445312 23.054688 0.453125 23.074219 Z M 0.453125 23.074219 "/>
<path style=" stroke:none;fill-rule:nonzero;fill:rgb(100%,100%,100%);fill-opacity:1;" d="M 0.800781 9.199219 L 0.800781 22.800781 L 0 22.800781 L 0 9.199219 Z M 0.800781 9.199219 "/>
<path style=" stroke:none;fill-rule:nonzero;fill:rgb(25.882353%,55.294118%,100%);fill-opacity:1;" d="M 0.398438 12.800781 C 0.507812 12.796875 0.605469 12.757812 0.683594 12.683594 C 0.839844 12.527344 0.839844 12.273438 0.683594 12.113281 L 0.625 12.066406 C 0.601562 12.050781 0.578125 12.039062 0.550781 12.03125 C 0.53125 12.019531 0.503906 12.011719 0.480469 12.007812 C 0.453125 12.003906 0.425781 12 0.398438 12 C 0.292969 12 0.191406 12.042969 0.117188 12.113281 C 0.078125 12.152344 0.0507812 12.199219 0.03125 12.246094 C -0.0273438 12.394531 0.00390625 12.566406 0.117188 12.683594 C 0.152344 12.71875 0.199219 12.746094 0.246094 12.765625 C 0.296875 12.789062 0.347656 12.796875 0.398438 12.800781 Z M 0.398438 12.800781 "/>
<path style=" stroke:none;fill-rule:nonzero;fill:rgb(25.882353%,55.294118%,100%);fill-opacity:1;" d="M 23.980469 9.09375 C 23.972656 9.070312 23.964844 9.046875 23.957031 9.023438 C 23.945312 9.003906 23.929688 8.984375 23.917969 8.964844 C 23.902344 8.941406 23.882812 8.921875 23.863281 8.902344 C 23.855469 8.894531 23.855469 8.890625 23.847656 8.882812 L 20 5.894531 L 20 2.800781 C 20 2.136719 19.460938 1.597656 18.800781 1.597656 L 14.464844 1.597656 L 12.730469 0.25 C 12.300781 -0.0820312 11.699219 -0.0820312 11.269531 0.25 L 9.535156 1.597656 L 5.199219 1.597656 C 4.539062 1.597656 4 2.136719 4 2.800781 L 4 5.894531 L 0.15625 8.882812 C 0.0585938 8.960938 0.00390625 9.078125 0.0078125 9.199219 L 0 9.199219 L 0 10.800781 C 0 11.019531 0.179688 11.199219 0.398438 11.199219 C 0.621094 11.199219 0.800781 11.019531 0.800781 10.800781 L 0.800781 9.808594 L 7.355469 14.898438 C 7.53125 15.035156 7.78125 15.003906 7.917969 14.828125 C 8.050781 14.652344 8.019531 14.402344 7.84375 14.265625 L 1.1875 9.09375 L 4 6.910156 L 4 10 C 4 10.21875 4.179688 10.398438 4.398438 10.398438 C 4.621094 10.398438 4.800781 10.21875 4.800781 10 L 4.800781 2.800781 C 4.800781 2.578125 4.980469 2.398438 5.199219 2.398438 L 18.800781 2.398438 C 19.019531 2.398438 19.199219 2.578125 19.199219 2.800781 L 19.199219 10 C 19.199219 10.21875 19.378906 10.398438 19.601562 10.398438 C 19.820312 10.398438 20 10.21875 20 10 L 20 6.910156 L 22.8125 9.09375 L 16.144531 14.273438 C 16.027344 14.363281 15.96875 14.503906 15.988281 14.648438 C 16.007812 14.789062 16.101562 14.910156 16.234375 14.964844 C 16.367188 15.019531 16.519531 14.996094 16.632812 14.90625 L 23.199219 9.808594 L 23.199219 22.574219 L 12.730469 14.445312 C 12.300781 14.109375 11.699219 14.109375 11.269531 14.445312 L 0.800781 22.574219 L 0.800781 14 C 0.800781 13.777344 0.621094 13.597656 0.398438 13.597656 C 0.179688 13.597656 0 13.777344 0 14 L 0 22.800781 C 0 23.054688 0.0820312 23.300781 0.234375 23.503906 C 0.238281 23.507812 0.238281 23.511719 0.242188 23.515625 C 0.242188 23.519531 0.25 23.523438 0.253906 23.527344 C 0.476562 23.824219 0.828125 23.996094 1.199219 24 L 22.800781 24 C 23.171875 24 23.523438 23.824219 23.75 23.527344 C 23.75 23.523438 23.757812 23.519531 23.757812 23.515625 C 23.761719 23.511719 23.761719 23.507812 23.765625 23.503906 C 23.917969 23.300781 24 23.054688 24 22.800781 L 24 9.199219 C 24 9.191406 23.996094 9.183594 23.996094 9.175781 C 23.992188 9.148438 23.988281 9.121094 23.980469 9.09375 Z M 11.761719 0.882812 C 11.898438 0.773438 12.097656 0.773438 12.238281 0.882812 L 13.160156 1.597656 L 10.839844 1.597656 Z M 11.761719 15.074219 C 11.898438 14.964844 12.097656 14.964844 12.238281 15.074219 L 22.699219 23.199219 L 1.300781 23.199219 Z M 11.761719 15.074219 "/>
<path style=" stroke:none;fill-rule:nonzero;fill:rgb(25.882353%,55.294118%,100%);fill-opacity:1;" d="M 12 6.398438 C 12.222656 6.398438 12.398438 6.21875 12.398438 6 C 12.398438 5.777344 12.222656 5.597656 12 5.597656 C 10.925781 5.597656 9.980469 6.308594 9.6875 7.339844 C 9.390625 8.375 9.820312 9.476562 10.734375 10.042969 C 11.648438 10.605469 12.824219 10.492188 13.617188 9.769531 C 13.703125 10.613281 14.441406 11.242188 15.289062 11.199219 C 16.136719 11.152344 16.800781 10.449219 16.800781 9.597656 L 16.800781 8 C 16.800781 5.347656 14.652344 3.199219 12 3.199219 C 9.347656 3.199219 7.199219 5.347656 7.199219 8 C 7.199219 10.648438 9.347656 12.800781 12 12.800781 C 12.222656 12.800781 12.398438 12.621094 12.398438 12.398438 C 12.398438 12.179688 12.222656 12 12 12 C 9.789062 12 8 10.207031 8 8 C 8 5.789062 9.789062 4 12 4 C 14.210938 4 16 5.789062 16 8 L 16 9.597656 C 16 10.039062 15.640625 10.398438 15.199219 10.398438 C 14.757812 10.398438 14.398438 10.039062 14.398438 9.597656 L 14.398438 8 C 14.398438 7.777344 14.222656 7.597656 14 7.597656 C 13.777344 7.597656 13.601562 7.777344 13.601562 8 C 13.601562 8.882812 12.882812 9.597656 12 9.597656 C 11.117188 9.597656 10.398438 8.882812 10.398438 8 C 10.398438 7.117188 11.117188 6.398438 12 6.398438 Z M 12 6.398438 "/>
</g>
</svg>
