<?xml version="1.0" encoding="UTF-8"?>
<svg xmlns="http://www.w3.org/2000/svg" xmlns:xlink="http://www.w3.org/1999/xlink" width="24pt" height="24pt" viewBox="0 0 24 24" version="1.1">
<g id="surface1">
<path style=" stroke:none;fill-rule:nonzero;fill:rgb(64.313725%,76.078431%,96.862745%);fill-opacity:1;" d="M 20.003906 9.59375 L 20.003906 22.800781 C 20.003906 23.242188 19.644531 23.597656 19.203125 23.601562 L 4.796875 23.601562 C 4.355469 23.597656 3.996094 23.242188 3.996094 22.800781 L 3.996094 9.59375 L 11.398438 1.96875 L 12 1.347656 Z M 20.003906 9.59375 "/>
<path style=" stroke:none;fill-rule:nonzero;fill:rgb(89.019608%,90.588235%,94.901961%);fill-opacity:1;" d="M 18.800781 9.59375 L 18.800781 22.800781 C 18.800781 23.242188 18.445312 23.597656 18.003906 23.601562 L 4.796875 23.601562 C 4.355469 23.597656 3.996094 23.242188 3.996094 22.800781 L 3.996094 9.59375 L 11.398438 1.96875 Z M 18.800781 9.59375 "/>
<path style=" stroke:none;fill-rule:nonzero;fill:rgb(96.078431%,96.078431%,96.078431%);fill-opacity:1;" d="M 21.671875 11.996094 L 21.535156 11.996094 C 21.332031 11.992188 21.132812 11.914062 20.988281 11.769531 C 20.980469 11.765625 20.972656 11.761719 20.96875 11.753906 L 12 2.515625 L 3.03125 11.753906 C 3.027344 11.761719 3.019531 11.765625 3.011719 11.769531 C 2.863281 11.914062 2.667969 11.992188 2.460938 11.996094 L 2.328125 11.996094 C 2 11.984375 1.707031 11.78125 1.582031 11.476562 C 1.460938 11.171875 1.527344 10.824219 1.757812 10.589844 L 11.433594 0.628906 C 11.582031 0.476562 11.785156 0.386719 12 0.386719 C 12.210938 0.386719 12.417969 0.476562 12.5625 0.628906 L 22.242188 10.589844 C 22.46875 10.824219 22.539062 11.171875 22.414062 11.476562 C 22.292969 11.78125 22 11.984375 21.671875 11.996094 Z M 21.671875 11.996094 "/>
<path style=" stroke:none;fill-rule:nonzero;fill:rgb(49.803922%,67.058824%,98.039216%);fill-opacity:1;" d="M 14.800781 17.195312 L 14.800781 23.601562 L 9.199219 23.601562 L 9.199219 17.195312 C 9.199219 16.753906 9.558594 16.398438 10 16.394531 L 14 16.394531 C 14.441406 16.398438 14.800781 16.753906 14.800781 17.195312 Z M 14.800781 17.195312 "/>
<path style=" stroke:none;fill-rule:nonzero;fill:rgb(89.019608%,90.588235%,94.901961%);fill-opacity:1;" d="M 13.601562 17.195312 L 13.601562 23.601562 L 9.199219 23.601562 L 9.199219 17.195312 C 9.199219 16.753906 9.558594 16.398438 10 16.394531 L 12.800781 16.394531 C 13.242188 16.398438 13.597656 16.753906 13.601562 17.195312 Z M 13.601562 17.195312 "/>
<path style=" stroke:none;fill-rule:nonzero;fill:rgb(64.313725%,76.078431%,96.862745%);fill-opacity:1;" d="M 10.398438 9.191406 L 13.601562 9.191406 C 14.042969 9.191406 14.402344 9.550781 14.402344 9.992188 L 14.402344 12.792969 C 14.402344 13.238281 14.042969 13.59375 13.601562 13.59375 L 10.398438 13.59375 C 9.957031 13.59375 9.597656 13.238281 9.597656 12.792969 L 9.597656 9.992188 C 9.597656 9.550781 9.957031 9.191406 10.398438 9.191406 Z M 10.398438 9.191406 "/>
<path style=" stroke:none;fill-rule:nonzero;fill:rgb(89.019608%,90.588235%,94.901961%);fill-opacity:1;" d="M 10.398438 9.191406 L 12.398438 9.191406 C 12.839844 9.191406 13.199219 9.550781 13.199219 9.992188 L 13.199219 12.792969 C 13.199219 13.238281 12.839844 13.59375 12.398438 13.59375 L 10.398438 13.59375 C 9.957031 13.59375 9.597656 13.238281 9.597656 12.792969 L 9.597656 9.992188 C 9.597656 9.550781 9.957031 9.191406 10.398438 9.191406 Z M 10.398438 9.191406 "/>
<path style=" stroke:none;fill-rule:nonzero;fill:rgb(89.019608%,90.588235%,94.901961%);fill-opacity:1;" d="M 21.671875 11.996094 L 21.535156 11.996094 C 21.355469 11.996094 21.179688 11.929688 21.042969 11.8125 C 21.222656 11.664062 21.332031 11.449219 21.34375 11.214844 C 21.359375 10.984375 21.273438 10.757812 21.113281 10.589844 L 11.433594 0.628906 C 11.582031 0.476562 11.785156 0.386719 12 0.386719 C 12.210938 0.386719 12.417969 0.476562 12.5625 0.628906 L 22.242188 10.589844 C 22.46875 10.824219 22.539062 11.171875 22.414062 11.476562 C 22.292969 11.78125 22 11.984375 21.671875 11.996094 Z M 21.671875 11.996094 "/>
<path style=" stroke:none;fill-rule:nonzero;fill:rgb(100%,100%,100%);fill-opacity:1;" d="M 2.328125 11.996094 L 2.460938 11.996094 C 2.660156 11.992188 2.851562 11.917969 3 11.78125 C 2.832031 11.628906 2.734375 11.417969 2.726562 11.191406 C 2.71875 10.96875 2.804688 10.75 2.957031 10.589844 L 12.601562 0.664062 L 12.5625 0.628906 C 12.417969 0.476562 12.210938 0.386719 12 0.386719 C 11.785156 0.386719 11.582031 0.476562 11.433594 0.628906 L 1.757812 10.589844 C 1.527344 10.824219 1.460938 11.171875 1.582031 11.476562 C 1.707031 11.78125 2 11.984375 2.328125 11.996094 Z M 2.328125 11.996094 "/>
<path style=" stroke:none;fill-rule:nonzero;fill:rgb(100%,100%,100%);fill-opacity:1;" d="M 4.230469 10.585938 C 4.226562 10.59375 4.21875 10.597656 4.210938 10.601562 C 4.148438 10.664062 4.074219 10.710938 3.996094 10.75 L 3.996094 22.800781 C 3.996094 23.242188 4.355469 23.597656 4.796875 23.601562 L 5.996094 23.601562 C 5.554688 23.597656 5.199219 23.242188 5.195312 22.800781 L 5.195312 9.59375 Z M 4.230469 10.585938 "/>
<path style=" stroke:none;fill-rule:nonzero;fill:rgb(100%,100%,100%);fill-opacity:1;" d="M 4.394531 14.394531 L 4.394531 22.800781 L 3.59375 22.800781 L 3.59375 14.394531 Z M 4.394531 14.394531 "/>
<path style=" stroke:none;fill-rule:nonzero;fill:rgb(25.882353%,55.294118%,100%);fill-opacity:1;" d="M 4.394531 14.394531 L 4.394531 13.59375 C 4.394531 13.375 4.214844 13.195312 3.996094 13.195312 C 3.773438 13.195312 3.59375 13.375 3.59375 13.59375 L 3.59375 15.996094 C 3.59375 16.21875 3.773438 16.394531 3.996094 16.394531 C 4.214844 16.394531 4.394531 16.21875 4.394531 15.996094 Z M 4.394531 14.394531 "/>
<path style=" stroke:none;fill-rule:nonzero;fill:rgb(25.882353%,55.294118%,100%);fill-opacity:1;" d="M 3.59375 22.800781 C 3.59375 23.460938 4.132812 24 4.796875 24 L 19.203125 24 C 19.867188 24 20.402344 23.460938 20.402344 22.800781 L 20.402344 13.59375 C 20.402344 13.375 20.222656 13.195312 20.003906 13.195312 C 19.78125 13.195312 19.601562 13.375 19.601562 13.59375 L 19.601562 22.800781 C 19.601562 23.019531 19.425781 23.199219 19.203125 23.199219 L 15.199219 23.199219 L 15.199219 17.195312 C 15.199219 16.535156 14.664062 15.996094 14 15.996094 L 10 15.996094 C 9.335938 15.996094 8.796875 16.535156 8.796875 17.195312 L 8.796875 23.199219 L 4.796875 23.199219 C 4.574219 23.199219 4.394531 23.019531 4.394531 22.800781 L 4.394531 19.199219 C 4.394531 18.976562 4.214844 18.796875 3.996094 18.796875 C 3.773438 18.796875 3.59375 18.976562 3.59375 19.199219 Z M 9.597656 17.195312 C 9.597656 16.976562 9.777344 16.796875 10 16.796875 L 14 16.796875 C 14.222656 16.796875 14.402344 16.976562 14.402344 17.195312 L 14.402344 23.199219 L 9.597656 23.199219 Z M 9.597656 17.195312 "/>
<path style=" stroke:none;fill-rule:nonzero;fill:rgb(25.882353%,55.294118%,100%);fill-opacity:1;" d="M 4.148438 17.230469 C 4.125 17.21875 4.101562 17.210938 4.074219 17.203125 C 4.050781 17.199219 4.023438 17.199219 3.996094 17.195312 C 3.890625 17.199219 3.789062 17.238281 3.710938 17.3125 C 3.675781 17.351562 3.648438 17.394531 3.628906 17.445312 C 3.566406 17.59375 3.601562 17.765625 3.710938 17.882812 C 3.75 17.917969 3.792969 17.945312 3.84375 17.964844 C 3.890625 17.984375 3.941406 17.996094 3.996094 17.996094 C 4.15625 17.996094 4.304688 17.902344 4.367188 17.75 C 4.429688 17.601562 4.394531 17.425781 4.28125 17.3125 L 4.21875 17.265625 C 4.199219 17.25 4.171875 17.238281 4.148438 17.230469 Z M 4.148438 17.230469 "/>
<path style=" stroke:none;fill-rule:nonzero;fill:rgb(25.882353%,55.294118%,100%);fill-opacity:1;" d="M 2.328125 12.394531 L 2.464844 12.394531 C 2.75 12.390625 3.023438 12.285156 3.238281 12.097656 C 3.269531 12.078125 3.292969 12.054688 3.320312 12.03125 L 12 3.09375 L 20.6875 12.039062 C 20.707031 12.058594 20.734375 12.078125 20.761719 12.097656 C 20.976562 12.285156 21.25 12.390625 21.535156 12.394531 L 21.671875 12.394531 C 22.15625 12.394531 22.59375 12.105469 22.773438 11.65625 C 22.972656 11.195312 22.871094 10.667969 22.527344 10.308594 L 12.851562 0.351562 C 12.378906 -0.117188 11.617188 -0.117188 11.148438 0.351562 L 1.472656 10.308594 C 1.128906 10.667969 1.027344 11.195312 1.226562 11.65625 C 1.40625 12.101562 1.84375 12.394531 2.328125 12.394531 Z M 2.046875 10.867188 L 11.71875 0.910156 C 11.792969 0.835938 11.894531 0.792969 12 0.792969 C 12.101562 0.792969 12.203125 0.835938 12.277344 0.910156 L 21.953125 10.867188 C 22.074219 10.992188 22.109375 11.183594 22.039062 11.34375 C 21.976562 11.492188 21.832031 11.59375 21.671875 11.59375 L 21.535156 11.59375 C 21.429688 11.59375 21.328125 11.550781 21.253906 11.472656 C 21.253906 11.46875 21.25 11.46875 21.246094 11.46875 C 21.242188 11.464844 21.238281 11.460938 21.238281 11.457031 L 12.285156 2.238281 L 12.28125 2.234375 L 12.28125 2.230469 C 12.261719 2.214844 12.238281 2.199219 12.21875 2.1875 C 12.195312 2.171875 12.175781 2.160156 12.152344 2.148438 C 12.125 2.140625 12.101562 2.132812 12.074219 2.128906 C 12.027344 2.113281 11.972656 2.113281 11.925781 2.128906 C 11.902344 2.132812 11.875 2.140625 11.851562 2.148438 C 11.828125 2.160156 11.804688 2.171875 11.785156 2.1875 C 11.761719 2.199219 11.742188 2.214844 11.722656 2.230469 L 11.714844 2.238281 L 2.761719 11.457031 C 2.757812 11.460938 2.757812 11.464844 2.753906 11.464844 C 2.75 11.46875 2.746094 11.46875 2.742188 11.472656 C 2.667969 11.550781 2.566406 11.59375 2.460938 11.59375 L 2.328125 11.59375 C 2.164062 11.59375 2.019531 11.492188 1.960938 11.34375 C 1.890625 11.183594 1.925781 10.992188 2.046875 10.867188 Z M 2.046875 10.867188 "/>
<path style=" stroke:none;fill-rule:nonzero;fill:rgb(25.882353%,55.294118%,100%);fill-opacity:1;" d="M 13.601562 13.996094 C 14.261719 13.996094 14.800781 13.457031 14.800781 12.792969 L 14.800781 9.992188 C 14.800781 9.332031 14.261719 8.792969 13.601562 8.792969 L 10.398438 8.792969 C 9.734375 8.792969 9.199219 9.332031 9.199219 9.992188 L 9.199219 12.792969 C 9.199219 13.457031 9.734375 13.996094 10.398438 13.996094 Z M 10 12.792969 L 10 9.992188 C 10 9.773438 10.175781 9.59375 10.398438 9.59375 L 13.601562 9.59375 C 13.820312 9.59375 14 9.773438 14 9.992188 L 14 12.792969 C 14 13.015625 13.820312 13.195312 13.601562 13.195312 L 10.398438 13.195312 C 10.175781 13.195312 10 13.015625 10 12.792969 Z M 10 12.792969 "/>
<path style=" stroke:none;fill-rule:nonzero;fill:rgb(25.882353%,55.294118%,100%);fill-opacity:1;" d="M 10.800781 19.597656 L 10.398438 19.597656 C 10.175781 19.597656 10 19.777344 10 19.996094 C 10 20.21875 10.175781 20.398438 10.398438 20.398438 L 10.800781 20.398438 C 11.019531 20.398438 11.199219 20.21875 11.199219 19.996094 C 11.199219 19.777344 11.019531 19.597656 10.800781 19.597656 Z M 10.800781 19.597656 "/>
</g>
</svg>
