<svg xmlns="http://www.w3.org/2000/svg" viewBox="0 0 188 77.4"><defs><style>.cls-1{font-size:56px;font-family:OCRAExtended, OCR A Extended;letter-spacing:-0.12em;}.cls-1,.cls-2{fill:#335eea;}</style></defs><title>DetApp-logo</title><g id="Layer_15" data-name="Layer 15"><text class="cls-1" transform="translate(0 67.5)">Det</text><path class="cls-2" d="M148.25,88.25h-22.5a12,12,0,0,0-12,12v43.5a12,12,0,0,0,12,12h22.5a12,12,0,0,0,12-12v-43.5A12,12,0,0,0,148.25,88.25Zm-11.58,61.13a3.44,3.44,0,1,1,3.44-3.44A3.44,3.44,0,0,1,136.67,149.38ZM142,136.25l-1.92-9.79-6.83,0-1.81,9.83H121.25l6.5-38H145.5l7.25,38Z" transform="translate(-27.75 -88.25)"/><text class="cls-1" transform="translate(132 66.03)">pp</text></g></svg>